<svg width="128" height="128" viewBox="0 0 128 128" fill="none" xmlns="http://www.w3.org/2000/svg">
<path d="M122 0C125.314 0 128 2.68629 128 6V122C128 125.314 125.314 128 122 128H6C2.68629 128 0 125.314 0 122V6C0 2.68629 2.68629 0 6 0H122ZM98.6025 52C95.2816 52 92.1355 52.3584 89.1641 53.0742C86.1926 53.7901 83.5771 54.9074 81.3193 56.4268C79.0616 57.9462 77.2777 59.8823 75.9668 62.2344C74.6558 64.5866 74 67.3992 74 70.6719C74.0001 74.8503 75.202 78.4151 77.6055 81.3662C80.009 84.3174 83.6576 86.816 88.5518 88.8613C90.4745 89.6502 92.2663 90.4249 93.9268 91.1846C95.5873 91.9443 97.0225 92.7326 98.2314 93.5508C99.4404 94.3689 100.394 95.2605 101.093 96.2246C101.793 97.1889 102.142 98.2845 102.142 99.5117C102.142 100.418 101.924 101.258 101.487 102.032C101.05 102.806 100.387 103.478 99.498 104.048C98.6096 104.618 97.503 105.064 96.1777 105.385C94.8522 105.706 93.3005 105.867 91.5234 105.867C88.4935 105.867 85.4931 105.334 82.5215 104.267C79.55 103.201 76.7963 101.601 74.2617 99.4678V113.494C76.534 114.662 79.2217 115.539 82.3242 116.123C85.4268 116.708 88.6972 117 92.1348 117C95.4849 117 98.6679 116.679 101.683 116.036C104.699 115.393 107.342 114.334 109.615 112.858C111.887 111.382 113.686 109.454 115.012 107.072C116.337 104.691 117 101.747 117 98.2402C117 95.6984 116.621 93.4705 115.864 91.5566C115.106 89.6427 114.014 87.9405 112.586 86.4502C111.159 84.9601 109.447 83.6238 107.452 82.4404C105.456 81.2571 103.206 80.1388 100.7 79.0869C98.865 78.3272 97.2183 77.5899 95.7617 76.874C94.3051 76.1582 93.0674 75.4267 92.0479 74.6816C91.0284 73.9366 90.2419 73.148 89.6885 72.3154C89.135 71.4828 88.8574 70.5401 88.8574 69.4883C88.8574 68.524 89.1053 67.6542 89.6006 66.8799C90.0959 66.1057 90.7953 65.4409 91.6982 64.8857C92.6013 64.3307 93.7086 63.8996 95.0195 63.5928C96.3305 63.2859 97.7875 63.1328 99.3896 63.1328C100.555 63.1328 101.785 63.2202 103.082 63.3955C104.378 63.5708 105.682 63.8417 106.993 64.207C108.304 64.5722 109.578 65.0317 110.817 65.5869C112.055 66.1421 113.198 66.7852 114.247 67.5156V54.4111C112.12 53.593 109.797 52.9863 107.277 52.5918C104.757 52.1973 101.866 52 98.6025 52ZM18 64.5547H36.208V116H50.7021V64.5547H69V53H18V64.5547Z" fill="white"/>
</svg>
