<svg width="128" height="128" viewBox="0 0 128 128" fill="none" xmlns="http://www.w3.org/2000/svg">
<path d="M0 0V128H128V0H0ZM70.4 95.36C70.4 106.24 64.768 115.2 52.224 115.2C43.648 115.2 37.888 111.872 33.92 104.96L42.624 98.56C44.672 102.4 47.616 104.192 50.56 104.192C55.168 104.192 57.6 101.888 57.6 94.336V57.6H70.4V95.36ZM97.024 115.2C89.6 115.2 81.792 112.384 76.032 107.008L83.328 98.304C87.424 101.76 92.672 104.192 97.408 104.192C102.784 104.192 105.344 102.144 105.344 98.688C105.344 95.104 102.144 93.952 97.152 91.904L89.6 88.832C83.712 86.528 78.208 81.664 78.208 73.344C78.208 64 86.528 56.576 98.432 56.576C104.96 56.576 111.872 59.136 116.736 64L110.208 72.064C106.496 69.248 103.04 67.584 98.432 67.584C93.952 67.584 91.264 69.504 91.264 72.704C91.264 76.16 94.976 77.44 99.84 79.36L107.136 82.304C114.048 85.12 118.4 89.728 118.4 97.664C118.4 107.008 110.592 115.2 97.024 115.2Z" fill="white"/>
</svg>
