<svg width="24" height="24" viewBox="0 0 24 24" fill="none" xmlns="http://www.w3.org/2000/svg">
<g clip-path="url(#clip0_83_2)">
<path d="M21.0071 8.22204C21.0103 7.52835 20.8205 6.84743 20.4588 6.25548C20.0971 5.66353 19.5779 5.18391 18.9591 4.87027C18.3403 4.55664 17.6465 4.42138 16.9553 4.47962C16.264 4.53786 15.6026 4.7873 15.0451 5.20004C14.4877 5.61316 14.0563 6.17328 13.7993 6.81768C13.5422 7.46207 13.4696 8.1653 13.5896 8.84862C13.7096 9.53194 14.0175 10.1684 14.4787 10.6866C14.9399 11.2049 15.5363 11.5845 16.2011 11.783C15.9558 12.2821 15.5761 12.7028 15.1048 12.9978C14.6334 13.2929 14.0891 13.4505 13.5331 13.453H10.5431C9.43664 13.4568 8.3712 13.8721 7.55405 14.618V7.40004C8.46148 7.21492 9.26785 6.69944 9.8168 5.95355C10.3658 5.20766 10.6182 4.2845 10.5252 3.36307C10.4321 2.44163 10.0002 1.58756 9.31328 0.966459C8.62631 0.345355 7.73318 0.00146484 6.80705 0.00146484C5.88093 0.00146484 4.9878 0.345355 4.30083 0.966459C3.61386 1.58756 3.18199 2.44163 3.08896 3.36307C2.99592 4.2845 3.24836 5.20766 3.79731 5.95355C4.34626 6.69944 5.15262 7.21492 6.06005 7.40004V16.517C5.1543 16.6901 4.34317 17.1885 3.77965 17.9185C3.21614 18.6484 2.9392 19.5593 3.00107 20.4793C3.06294 21.3994 3.45934 22.265 4.11551 22.9129C4.77168 23.5608 5.64225 23.9462 6.56301 23.9964C7.48378 24.0466 8.39109 23.7581 9.1138 23.1854C9.83651 22.6126 10.3247 21.7953 10.4862 20.8874C10.6477 19.9795 10.4714 19.0439 9.9906 18.2571C9.50977 17.4702 8.75763 16.8865 7.87605 16.616C8.12193 16.1177 8.50182 15.6977 8.97309 15.4033C9.44436 15.1088 9.98836 14.9515 10.5441 14.949H13.5341C14.4666 14.9445 15.3745 14.6494 16.1314 14.1047C16.8883 13.56 17.4566 12.7928 17.7571 11.91C18.6531 11.7925 19.4761 11.3541 20.0737 10.6762C20.6713 9.99829 21.0029 9.12574 21.0071 8.22204ZM4.56505 3.73804C4.56505 3.44362 4.62305 3.15208 4.73572 2.88007C4.84839 2.60806 5.01353 2.3609 5.22172 2.15271C5.42991 1.94452 5.67707 1.77938 5.94908 1.66671C6.22109 1.55403 6.51263 1.49604 6.80705 1.49604C7.10148 1.49604 7.39302 1.55403 7.66503 1.66671C7.93704 1.77938 8.1842 1.94452 8.39239 2.15271C8.60058 2.3609 8.76572 2.60806 8.87839 2.88007C8.99106 3.15208 9.04905 3.44362 9.04905 3.73804C9.04905 4.33266 8.81284 4.90292 8.39239 5.32338C7.97193 5.74383 7.40167 5.98004 6.80705 5.98004C6.21244 5.98004 5.64218 5.74383 5.22172 5.32338C4.80126 4.90292 4.56505 4.33266 4.56505 3.73804ZM9.04905 20.179C9.04905 20.4735 8.99106 20.765 8.87839 21.037C8.76572 21.309 8.60058 21.5562 8.39239 21.7644C8.1842 21.9726 7.93704 22.1377 7.66503 22.2504C7.39302 22.3631 7.10148 22.421 6.80705 22.421C6.51263 22.421 6.22109 22.3631 5.94908 22.2504C5.67707 22.1377 5.42991 21.9726 5.22172 21.7644C5.01353 21.5562 4.84839 21.309 4.73572 21.037C4.62305 20.765 4.56505 20.4735 4.56505 20.179C4.56505 19.5844 4.80126 19.0142 5.22172 18.5937C5.64218 18.1733 6.21244 17.937 6.80705 17.937C7.40167 17.937 7.97193 18.1733 8.39239 18.5937C8.81284 19.0142 9.04905 19.5844 9.04905 20.179ZM17.2701 10.464C16.6753 10.464 16.1049 10.2278 15.6844 9.80723C15.2638 9.38668 15.0276 8.81629 15.0276 8.22154C15.0276 7.6268 15.2638 7.05641 15.6844 6.63586C16.1049 6.21531 16.6753 5.97904 17.2701 5.97904C17.8648 5.97904 18.4352 6.21531 18.8557 6.63586C19.2763 7.05641 19.5126 7.6268 19.5126 8.22154C19.5126 8.81629 19.2763 9.38668 18.8557 9.80723C18.4352 10.2278 17.8648 10.464 17.2701 10.464Z" fill="white"/>
</g>
<defs>
<clipPath id="clip0_83_2">
<rect width="24" height="24" fill="white"/>
</clipPath>
</defs>
</svg>
